<svg width="109" height="25" viewBox="0 0 109 25" fill="none" xmlns="http://www.w3.org/2000/svg">
<path d="M16.3867 12.4722L19.2028 15.711L22.9927 18.1365L23.6635 12.451L23.011 6.8999L19.1409 9.07163L16.3867 12.4722Z" fill="#00832D"/>
<path d="M0.00790761 17.74L2.75781e-06 22.5804C-0.00180445 23.6871 0.884828 24.5784 1.9813 24.5722L6.77734 24.545L7.7756 20.8807L6.78854 17.7016L3.49909 16.7188L0.00790761 17.74Z" fill="#0066DA"/>
<path d="M6.8162 0.507812L0.0244141 7.38964L3.51232 8.37137L6.80504 7.35124L7.7859 4.20441L6.8162 0.507812Z" fill="#E94235"/>
<path d="M6.80338 7.35205L0.0227594 7.39045L0.00585938 17.7391L6.78647 17.7007L6.80338 7.35205Z" fill="#2684FC"/>
<path d="M27.3507 3.2892L23.0119 6.89905L22.9935 18.1356L27.3405 21.713C27.9912 22.2234 28.9447 21.749 28.9459 20.9127L28.9734 4.05449C28.9748 3.20825 28.0015 2.74973 27.3507 3.2892ZM16.3876 12.4713L16.3791 17.6456L6.78707 17.6999L6.77588 24.5434L20.9987 24.4629C22.0951 24.4567 22.9847 23.5553 22.9865 22.4487L22.9935 18.1356L16.3876 12.4713Z" fill="#00AC47"/>
<path d="M21.0376 0.427767L6.8149 0.508288L6.80371 7.35174L16.3958 7.29742L16.3874 12.4717L23.0116 6.90279L23.0189 2.41948C23.0207 1.31286 22.1341 0.421557 21.0376 0.427767Z" fill="#FFBA00"/>
<circle cx="55.686" cy="12.5" r="12.0722" fill="#4A8CFF"/>
<mask id="mask0_6360_216" style="mask-type:luminance" maskUnits="userSpaceOnUse" x="49" y="8" width="14" height="9">
<path d="M58.9457 11.1877L61.8703 9.00289C62.1258 8.79015 62.3204 8.83959 62.3204 9.23288V15.8955C62.3204 16.337 62.0774 16.2864 61.8703 16.1254L58.9457 13.9406V11.1877ZM49.0464 9.24897V14.2166C49.0492 14.7559 49.2613 15.272 49.6362 15.6515C50.011 16.031 50.5179 16.2429 51.0454 16.2404H58.1323C58.2282 16.2407 58.3202 16.2022 58.3883 16.1332C58.4567 16.0642 58.4952 15.9704 58.4957 15.8724V10.9048C58.4931 10.3655 58.281 9.84939 57.9062 9.46989C57.5313 9.09036 57.0244 8.87856 56.4966 8.88101H49.4097C49.3139 8.8807 49.2218 8.91925 49.1537 8.98824C49.0857 9.05721 49.0472 9.15096 49.0464 9.24897Z" fill="white"/>
</mask>
<g mask="url(#mask0_6360_216)">
<path d="M48.4839 8.30615H62.8828V16.8155H48.4839V8.30615Z" fill="white"/>
</g>
<path d="M96.2069 8.02434C98.2976 8.02434 99.9924 6.32377 99.9924 4.22605C99.9924 2.1283 98.2976 0.427734 96.2069 0.427734C94.1161 0.427734 92.4214 2.1283 92.4214 4.22605C92.4214 6.32377 94.1161 8.02434 96.2069 8.02434Z" fill="#7B83EB"/>
<path opacity="0.1" d="M95.9365 5.03955H92.5078L92.5248 5.11526L92.5266 5.12176L92.5444 5.19176C92.7935 6.13967 93.3981 6.95436 94.2316 7.46576C95.0651 7.97714 96.0633 8.14564 97.0176 7.9361V6.12444C97.0168 5.83699 96.9026 5.56153 96.7 5.35826C96.4974 5.15501 96.223 5.04042 95.9365 5.03955Z" fill="black"/>
<path opacity="0.2" d="M95.1257 5.85352H92.7866C93.0935 6.503 93.5778 7.05173 94.1834 7.43597C94.7887 7.82018 95.4905 8.02413 96.207 8.02408V6.9384C96.2062 6.65092 96.092 6.37549 95.8894 6.17222C95.6868 5.96895 95.4121 5.85438 95.1257 5.85352Z" fill="black"/>
<path d="M104.724 8.29567C106.292 8.29567 107.562 7.02034 107.562 5.44715C107.562 3.87396 106.292 2.59863 104.724 2.59863C103.156 2.59863 101.885 3.87396 101.885 5.44715C101.885 7.02034 103.156 8.29567 104.724 8.29567Z" fill="#5059C9"/>
<path d="M107.157 9.10889H100.781C100.643 9.10889 100.511 9.16376 100.414 9.26144C100.316 9.35912 100.261 9.49162 100.261 9.62976V16.2302C100.244 17.1855 100.554 18.1178 101.14 18.871C101.725 19.6243 102.551 20.1527 103.479 20.3679C104.07 20.4923 104.681 20.4829 105.268 20.3404C105.855 20.198 106.402 19.9259 106.871 19.5443C107.34 19.1625 107.718 18.6807 107.978 18.1339C108.238 17.5871 108.373 16.989 108.373 16.3832V10.3297C108.373 10.0059 108.245 9.69539 108.017 9.46645C107.789 9.2375 107.479 9.10889 107.157 9.10889Z" fill="#5059C9"/>
<path d="M102.696 10.3297V18.0614C102.696 19.4942 102.226 20.8873 101.357 22.0243C100.488 23.1614 99.2692 23.9789 97.8899 24.3499C96.5106 24.7209 95.0477 24.6248 93.7286 24.0764C92.4094 23.528 91.3075 22.5579 90.5936 21.3169C90.4376 21.0566 90.3022 20.7844 90.1883 20.503C90.0821 20.2376 89.9927 19.9658 89.9206 19.6891C89.7868 19.1569 89.7188 18.6102 89.7178 18.0614V10.3297C89.7175 10.1693 89.7489 10.0105 89.81 9.86226C89.8709 9.71405 89.9606 9.57938 90.0738 9.46597C90.1867 9.35257 90.3208 9.26265 90.4687 9.20138C90.6164 9.14011 90.7745 9.10868 90.9345 9.10889H101.479C101.639 9.10868 101.797 9.14011 101.945 9.20138C102.092 9.26265 102.227 9.35257 102.34 9.46597C102.452 9.57938 102.542 9.71405 102.603 9.86226C102.664 10.0105 102.696 10.1693 102.696 10.3297Z" fill="#7B83EB"/>
<path opacity="0.2" d="M95.1257 5.85352H92.7866C93.0935 6.503 93.5778 7.05173 94.1834 7.43597C94.7887 7.82018 95.4905 8.02413 96.207 8.02408V6.9384C96.2062 6.65092 96.092 6.37549 95.8894 6.17222C95.6868 5.96895 95.4121 5.85438 95.1257 5.85352Z" fill="black"/>
<path opacity="0.1" d="M97.0177 9.10889V19.4205C97.0177 19.6659 96.9341 19.9038 96.7806 20.0948C96.6272 20.2858 96.4132 20.4184 96.1743 20.4704C96.0979 20.4932 96.0185 20.5042 95.939 20.503H90.1883C90.0821 20.2376 89.9927 19.9658 89.9206 19.6891C89.7868 19.1569 89.7188 18.6102 89.7178 18.0614V10.3297C89.7175 10.1693 89.7489 10.0105 89.81 9.86226C89.8709 9.71405 89.9606 9.57938 90.0738 9.46597C90.1867 9.35257 90.3208 9.26265 90.4687 9.20138C90.6164 9.14011 90.7745 9.10868 90.9345 9.10889H97.0177Z" fill="black"/>
<path opacity="0.2" d="M96.2067 9.10889V20.2344C96.2077 20.3143 96.1967 20.3939 96.1743 20.4704C96.1222 20.7102 95.9902 20.9249 95.8 21.0789C95.6094 21.2329 95.3724 21.3169 95.1277 21.3169H90.5936C90.4376 21.0566 90.3022 20.7844 90.1883 20.503C90.0821 20.2376 89.9927 19.9658 89.9206 19.6891C89.7868 19.1569 89.7188 18.6102 89.7178 18.0614V10.3297C89.7175 10.1693 89.7489 10.0105 89.81 9.86226C89.8709 9.71405 89.9606 9.57938 90.0738 9.46597C90.1867 9.35257 90.3208 9.26265 90.4687 9.20138C90.6164 9.14011 90.7745 9.10868 90.9345 9.10889H96.2067Z" fill="black"/>
<path opacity="0.2" d="M96.2067 9.10889V18.6067C96.2054 18.8934 96.0911 19.1679 95.8891 19.3707C95.6873 19.5734 95.4137 19.6878 95.1277 19.6891H89.9206C89.7868 19.1569 89.7188 18.6102 89.7178 18.0614V10.3297C89.7175 10.1693 89.7489 10.0105 89.81 9.86226C89.8709 9.71405 89.9606 9.57938 90.0738 9.46597C90.1867 9.35257 90.3208 9.26265 90.4687 9.20138C90.6164 9.14011 90.7745 9.10868 90.9345 9.10889H96.2067Z" fill="black"/>
<path opacity="0.2" d="M90.9345 9.10889C90.7745 9.10868 90.6164 9.14011 90.4687 9.20138C90.3208 9.26265 90.1867 9.35257 90.0738 9.46597C89.9606 9.57938 89.8709 9.71405 89.81 9.86226C89.7489 10.0105 89.7175 10.1693 89.7178 10.3297V18.0614C89.7188 18.6102 89.7868 19.1569 89.9206 19.6891H94.3167C94.6023 19.6878 94.876 19.5734 95.078 19.3707C95.2801 19.1679 95.3943 18.8934 95.3956 18.6067V9.10889H90.9345Z" fill="black"/>
<path d="M83.4993 5.85352H94.3144C94.6012 5.85352 94.8761 5.96782 95.079 6.17127C95.2818 6.37473 95.3957 6.65066 95.3957 6.9384V17.7904C95.3957 18.0782 95.2818 18.3541 95.079 18.5576C94.8761 18.761 94.6012 18.8753 94.3144 18.8753H83.4993C83.2125 18.8753 82.9376 18.761 82.7348 18.5576C82.5319 18.3541 82.418 18.0782 82.418 17.7904V6.9384C82.418 6.65066 82.5319 6.37473 82.7348 6.17127C82.9376 5.96782 83.2125 5.85352 83.4993 5.85352Z" fill="#4B53BC"/>
<path d="M92.1352 9.90263H89.7099V16.4298H88.1186V9.90263H85.6787V8.29932H92.1352V9.90263Z" fill="white"/>
</svg>
